<svg xmlns="http://www.w3.org/2000/svg" width="101" height="18" fill="none"><path fill="#fff" d="M14.563 0H5.256C2.636 0 .5 2.042.5 4.55v8.9C.5 15.959 2.635 18 5.256 18h9.307c2.621 0 4.756-2.042 4.756-4.55v-8.9c0-2.508-2.135-4.55-4.756-4.55Zm4.327 13.45c0 2.283-1.942 4.139-4.327 4.139H5.256c-2.385 0-4.327-1.856-4.327-4.138V4.549C.93 2.267 2.871.411 5.256.411h9.307c2.385 0 4.327 1.856 4.327 4.138v8.902Z"/><path fill="#fff" d="m3.134 9.811 2.336 2.234v-6.09L3.134 8.188a1.11 1.11 0 0 0 0 1.623ZM11.17 10.416H8.654v2.83H6.727l2.336 2.234c.47.45 1.227.45 1.697 0l2.337-2.233H11.17v-2.83ZM9.063 2.517 6.727 4.751h1.926v2.833h2.518V4.75h1.926L10.76 2.517a1.237 1.237 0 0 0-1.698 0ZM14.355 5.955v6.09l2.337-2.233a1.11 1.11 0 0 0 0-1.624l-2.337-2.233ZM35.319 12.479h-.18l-3.705-8.338c-.236-.51-.712-.794-1.274-.794H25.06V5.76h1.72v8.933h2.58V5.56h.206l4.064 9.131h4.27V3.348h-2.58v9.132ZM44.044 6.015c-2.758 0-4.806 1.9-4.806 4.422 0 2.523 2.046 4.423 4.806 4.423 2.76 0 4.832-1.9 4.832-4.423s-2.075-4.422-4.832-4.422Zm0 6.55c-1.274.028-2.285-.908-2.285-2.128 0-1.22 1.008-2.153 2.285-2.153 1.276 0 2.284.936 2.284 2.153 0 1.218-1.008 2.156-2.284 2.127ZM54.136 12.621h-.18l-2.4-6.438h-2.728l3.412 8.508h3.529l3.439-8.508h-2.67l-2.402 6.438ZM65.887 6.183h-5.664V8.31h4.922c.326 0 .505.17.505.483v.822h-2.757c-2.224 0-3.498.907-3.498 2.608 0 1.53 1.246 2.636 3.202 2.636 1.157 0 2.195-.37 2.964-1.049h.18v.879h2.34v-6.41c0-1.277-.858-2.099-2.194-2.099v.003Zm-.237 5.02c0 .963-.92 1.899-2.4 1.899-.86 0-1.364-.452-1.364-1.021 0-.595.415-.964 1.423-.964h2.341v.085ZM76.27 3.347h-6.168v11.345h2.7v-4.198h3.469c2.52 0 4.18-1.362 4.18-3.575 0-2.212-1.66-3.574-4.18-3.574v.002Zm-.146 4.963h-3.322V5.617h3.322c.948 0 1.573.509 1.573 1.33 0 .823-.622 1.363-1.573 1.363ZM87.281 6.183h-5.663V8.31h4.922c.326 0 .505.17.505.483v.822h-2.757c-2.225 0-3.499.908-3.499 2.608 0 1.53 1.247 2.637 3.203 2.637 1.157 0 2.195-.37 2.963-1.05h.18v.88h2.341V8.278c0-1.277-.858-2.099-2.195-2.099v.003Zm-.236 5.02c0 .963-.92 1.9-2.401 1.9-.859 0-1.364-.453-1.364-1.022 0-.594.416-.964 1.423-.964h2.342v.085ZM97.924 6.183l-2.312 6.58h-.206l-2.581-6.58h-2.727L94.25 15.4c-.12.17-.236.227-.416.227H91.02v2.184h3.262c1.184 0 1.78-.537 2.312-1.814l3.914-9.812h-2.58l-.003-.002Z"/></svg>