<svg width="24" height="24" fill="none" xmlns="http://www.w3.org/2000/svg"><g clip-path="url(#a)" fill="#fff"><path d="M17.934 0H6.066A6.074 6.074 0 0 0 0 6.066v11.868A6.074 6.074 0 0 0 6.066 24h11.87a6.074 6.074 0 0 0 6.066-6.066V6.066A6.077 6.077 0 0 0 17.934 0Zm5.517 17.934a5.525 5.525 0 0 1-5.517 5.518H6.066a5.524 5.524 0 0 1-5.517-5.518V6.066A5.522 5.522 0 0 1 6.066.548h11.87a5.524 5.524 0 0 1 5.517 5.518v11.868h-.002Z"/><path d="m3.356 13.082 2.979 2.978V7.94l-2.979 2.978a1.53 1.53 0 0 0 0 2.166v-.002ZM13.606 13.889h-3.212v3.776H7.94l2.978 2.977a1.532 1.532 0 0 0 2.166 0l2.979-2.977h-2.455v-3.776h-.002ZM10.918 3.357 7.94 6.335h2.454v3.778h3.212V6.335h2.455l-2.979-2.978a1.532 1.532 0 0 0-2.166 0h.002ZM17.665 7.94v8.12l2.978-2.978a1.53 1.53 0 0 0 0-2.166l-2.978-2.978v.002Z"/></g><defs><clipPath id="a"><path fill="#fff" d="M0 0h24v24H0z"/></clipPath></defs></svg>