<svg width="40" height="40" fill="none" xmlns="http://www.w3.org/2000/svg"><path d="M20 40c11.046 0 20-8.954 20-20S31.046 0 20 0 0 8.954 0 20s8.954 20 20 20Z" fill="url(#a)"/><path fill-rule="evenodd" clip-rule="evenodd" d="M9.053 19.789c5.83-2.54 9.718-4.215 11.664-5.024 5.554-2.31 6.708-2.712 7.46-2.725.166-.003.536.038.775.233.203.164.258.386.285.541.027.156.06.51.033.788-.3 3.162-1.603 10.837-2.265 14.379-.28 1.498-.833 2-1.367 2.05-1.162.107-2.044-.767-3.169-1.505-1.76-1.154-2.754-1.872-4.463-2.998-1.975-1.301-.695-2.016.43-3.185.295-.306 5.413-4.96 5.512-5.383.012-.053.024-.25-.093-.354-.117-.104-.29-.068-.414-.04-.177.04-2.989 1.899-8.437 5.576-.798.548-1.52.815-2.168.801-.715-.015-2.088-.403-3.11-.735-1.252-.407-2.247-.623-2.16-1.314.044-.36.54-.729 1.487-1.105Z" fill="#fff"/><defs><linearGradient id="a" x1="20" y1="0" x2="20" y2="39.703" gradientUnits="userSpaceOnUse"><stop stop-color="#2AABEE"/><stop offset="1" stop-color="#229ED9"/></linearGradient></defs></svg>