<svg width="30" height="30" fill="none" xmlns="http://www.w3.org/2000/svg"><circle cx="15" cy="15" r="15" fill="#7360F2"/><path fill="#7360F2" d="M6 6h18.968v20H6z"/><path d="M22.827 7.95c-.497-.458-2.506-1.916-6.98-1.936 0 0-5.275-.318-7.847 2.041-1.432 1.432-1.935 3.527-1.988 6.125-.053 2.598-.122 7.465 4.57 8.785h.005l-.003 2.015s-.03.815.507.981c.65.202 1.03-.418 1.65-1.086.34-.367.81-.905 1.165-1.317 3.21.27 5.677-.347 5.958-.439.648-.21 4.314-.68 4.91-5.547.616-5.017-.297-8.19-1.947-9.621Z" fill="#fff"/><path d="M21.783 8.964c-.42-.382-2.234-1.521-6.018-1.538 0 0-4.481-.294-6.657 1.676-1.21 1.195-1.618 2.973-1.663 5.143-.045 2.169-.276 6.313 3.692 7.415l-.018 3.347c0 .19.03.319.138.345.078.02.195-.02.294-.12.634-.637 2.665-3.087 2.665-3.087 2.726.178 4.894-.36 5.127-.437.55-.176 3.524-.432 4.027-4.497.52-4.191-.19-7.051-1.587-8.247Z" fill="#7360F2"/><path d="M17.689 14.066c-.05-.992-.553-1.513-1.512-1.563" stroke="#fff" stroke-linecap="round" stroke-linejoin="round"/><path d="M18.987 14.502c.02-.925-.254-1.697-.821-2.317-.57-.623-1.36-.965-2.373-1.04" stroke="#fff" stroke-linecap="round" stroke-linejoin="round"/><path d="M20.316 15.022c-.012-1.604-.491-2.868-1.438-3.79-.946-.923-2.123-1.39-3.53-1.399" stroke="#fff" stroke-linecap="round" stroke-linejoin="round"/><path d="M16.227 17.455s.356.03.547-.206l.373-.47c.18-.232.615-.38 1.04-.144.32.182.63.38.928.593.283.207.861.69.863.69.275.233.34.574.152.934l-.002.008a3.898 3.898 0 0 1-.777.957l-.007.005c-.268.224-.53.35-.789.381a1.05 1.05 0 0 1-.45-.044l-.01-.012c-.397-.112-1.061-.393-2.168-1.004a12.92 12.92 0 0 1-1.822-1.204 9.548 9.548 0 0 1-.82-.727l-.028-.027-.027-.028-.028-.027-.027-.028c-.258-.26-.501-.533-.727-.82a12.921 12.921 0 0 1-1.204-1.822c-.61-1.107-.892-1.77-1.004-2.17l-.012-.007a1.05 1.05 0 0 1-.045-.451c.033-.258.16-.521.383-.79l.005-.007c.276-.308.598-.57.957-.777l.007-.001c.36-.188.702-.124.934.15.002.002.484.58.69.862.213.3.411.61.593.929.237.425.088.86-.144 1.04l-.47.373c-.237.192-.206.548-.206.548s.696 2.633 3.295 3.296Z" fill="#fff"/></svg>